inDegrees=yes
name=ik_appendData_wink_l
DataType=double
version=3
OpenSimVersion=4.5
endheader
time	pelvis_tilt	pelvis_list	pelvis_rotation	pelvis_tx	pelvis_ty	pelvis_tz	hip_flexion_r	hip_adduction_r	hip_rotation_r	knee_angle_r	knee_angle_r_beta	ankle_angle_r	subtalar_angle_r	mtp_angle_r	hip_flexion_l	hip_adduction_l	hip_rotation_l	knee_angle_l	knee_angle_l_beta	ankle_angle_l	subtalar_angle_l	mtp_angle_l	lumbar_extension	lumbar_bending	lumbar_rotation	arm_flex_r	arm_add_r	arm_rot_r	elbow_flex_r	pro_sup_r	wrist_flex_r	wrist_dev_r	arm_flex_l	arm_add_l	arm_rot_l	elbow_flex_l	pro_sup_l	wrist_flex_l	wrist_dev_l
75	-1.084947577344991	89.65732746222864	1.079032544343305	0	0.9399999999999999	0	44.79822993956753	-10.00938388734859	0	59.97197356423174	1.046708397614843	-5.000962732087679	0	0	44.79822993956753	-10.00938388734859	0	59.97197356423174	1.046708397614843	-5.000962732087679	0	0	1.755369146491322	-2.210103865200001	0.03556115127080711	0	-13.24877943684132	0	75.57799158052114	44.98271671511863	0	0	89.93160759372356	55.64731999167554	-32.61773512566388	59.98103815727629	44.98271671511863	0	0
76	-1.106291408154911	89.65483042451589	1.106741956658451	0	0.9399999999999999	0	44.80308696359589	-10.0088756907093	0	59.97262893141185	1.046719835929945	-5.000902315805711	0	0	44.80308696359589	-10.0088756907093	0	59.97262893141185	1.046719835929945	-5.000902315805711	0	0	1.390519283644828	-1.873535119525334	0.01843068268530844	0	-13.2744943641116	0	75.56408210270138	44.98353198404066	0	0	89.91382635775945	58.00587904410212	-29.60544795043861	72.41734412678666	44.98353198404066	0	0
77	-1.105028103377148	89.65401801060753	1.110700217961401	0	0.9399999999999999	0	44.80764197995705	-10.00841710615813	0	59.97326372863346	1.046730915231545	-5.000848115445931	0	0	44.80764197995705	-10.00841710615813	0	59.97326372863346	1.046730915231545	-5.000848115445931	0	0	1.022769770916458	-1.378704567973696	0.006737037412668608	0	-13.29912598344461	0	75.55103755139754	44.98427220698164	0	0	89.88398142914475	59.4149187151023	-25.49614506478636	86.05295701728403	44.98427220698164	0	0
78	-1.125029283190368	89.65574027124119	1.126190062479525	0	0.9399999999999999	0	44.81173025589429	-10.00800672658101	0	59.97383227156296	1.046740838177604	-5.00079954216759	0	0	44.81173025589429	-10.00800672658101	0	59.97383227156296	1.046740838177604	-5.00079954216759	0	0	0.4132076944718678	-0.3717214216228374	0.003831389590618032	0	-13.32130778337083	0	75.53932964489871	44.98493437107746	0	0	89.71001458193511	60.35667347403006	-20.99541573632353	100.8893165573796	44.98493437107746	0	0
79	-1.125694920853124	89.66138303299705	1.122705675316212	0	0.9399999999999999	0	44.81179762989584	-10.00799666560514	0	59.97383962840948	1.046740966578798	-5.000798230301625	0	0	44.81179762989584	-10.00799666560514	0	59.97383962840948	1.046740966578798	-5.000798230301625	0	0	0.4494046671158077	-0.4194078675903927	0.002263729025657219	0	-13.32161443448178	0	75.53913669619875	44.98494933409601	0	0	89.72053678143087	60.3954322636011	-21.37142166457522	101.5214360990499	44.98494933409601	0	0
80	-1.102453185560924	89.65518878822	1.101776101062495	0	0.9399999999999999	0	44.81354104970133	-10.0078225445463	0	59.97407988839038	1.046745159906525	-5.00077765320177	0	0	44.81354104970133	-10.0078225445463	0	59.97407988839038	1.046745159906525	-5.00077765320177	0	0	0.6521676927714245	-0.724184772039638	0.00226034041421811	0	-13.33108267230065	0	75.53414393268753	44.98523064557946	0	0	89.81512718003498	58.79619671610749	-22.9074936201198	95.8048717998694	44.98523064557946	0	0
81	-1.10282398954676	89.65545191817245	1.104206140765123	0	0.9399999999999999	0	44.81368144192832	-10.007801956268	0	59.97409526860762	1.046745428341956	-5.000774983485327	0	0	44.81368144192832	-10.007801956268	0	59.97409526860762	1.046745428341956	-5.000774983485327	0	0	0.2880889179834495	-0.1175731306145054	-0.003119922787086458	0	-13.33172557310828	0	75.53374187164287	44.98526139711274	0	0	89.57500789874601	58.61866547803766	-22.8437938986489	96.66057143101369	44.98526139711274	0	0
82	-1.109156077020435	89.65225281087264	1.088276065314759	0	0.9399999999999999	0	44.81444719440811	-10.00772112158624	0	59.97419662138251	1.046747197281584	-5.000765294230968	0	0	44.81444719440811	-10.00772112158624	0	59.97419662138251	1.046747197281584	-5.000765294230968	0	0	0.1328547889794241	0.1370362615383397	0.01193643926050218	0	-13.33578891564903	0	75.53154892098593	44.98539047780062	0	0	89.11146710376521	58.12553364912551	-23.24734176510046	94.56217067441349	44.98539047780062	0	0
83	-1.079625179791046	89.65708366858159	1.080981695419688	0	0.9399999999999999	0	44.81678335635586	-10.00750140243989	0	59.97452027105297	1.046752846033956	-5.000739875775509	0	0	44.81678335635586	-10.00750140243989	0	59.97452027105297	1.046752846033956	-5.000739875775509	0	0	0.2206717821363328	0.03025270119630231	-0.009387647901898589	0	-13.34866552823281	0	75.52485869139016	44.98575112545944	0	0	89.40765122945615	57.33367552069237	-25.4042017134046	87.68018544246515	44.98575112545944	0	0
84	-1.075725889445872	89.65453573378848	1.074293124700396	0	0.9399999999999999	0	44.81950370924908	-10.00723799954449	0	59.97489002525035	1.046759299462124	-5.000709126451803	0	0	44.81950370924908	-10.00723799954449	0	59.97489002525035	1.046759299462124	-5.000709126451803	0	0	0.1516800764008134	0.1211698791930365	-0.00181520021638057	0	-13.36351054413498	0	75.51706821692079	44.9861804885087	0	0	89.17784895416678	56.68355736999517	-27.59031156069678	80.60403468263181	44.9861804885087	0	0
85	-1.053794042858542	89.6561938029997	1.05259729319844	0	0.9399999999999999	0	44.82277034332837	-10.00695024102266	0	59.97534374700587	1.046767218400645	-5.000676585564062	0	0	44.82277034332837	-10.00695024102266	0	59.97534374700587	1.046767218400645	-5.000676585564062	0	0	0.33452979077733	-0.1271490901147277	0.001192361577652369	0	-13.38181885552007	0	75.50771335049792	44.98666092724955	0	0	89.63258126174995	55.11678166345161	-31.48416226270365	70.15518980622259	44.98666092724955	0	0
86	-1.028236407745344	89.65077899629865	1.026380616654567	0	0.9399999999999999	0	44.82667573078444	-10.00659771226012	0	59.97587980734193	1.046776574418499	-5.000636320134027	0	0	44.82667573078444	-10.00659771226012	0	59.97587980734193	1.046776574418499	-5.000636320134027	0	0	0.5881873990450843	-0.4212876064874591	-0.0002317351700338231	0	-13.40358841535893	0	75.49652923676678	44.98724541541814	0	0	89.7948280239976	52.97705690561399	-34.36073591479632	58.95847414400758	44.98724541541814	0	0
87	-0.9884263925559926	89.65552269164246	0.9855223219840237	0	0.9399999999999999	0	44.83020041971427	-10.00628287259365	0	59.97636449370623	1.046785033791396	-5.000600421009342	0	0	44.83020041971427	-10.00628287259365	0	59.97636449370623	1.046785033791396	-5.000600421009342	0	0	0.9867722004769481	-0.8185054958383416	0.002434069509317502	0	-13.42333942938176	0	75.48643536012553	44.98776833707885	0	0	89.87767553719172	49.84533246743909	-35.89818266834929	47.12297297252088	44.98776833707885	0	0
88	-0.8924769668167023	89.6573230097716	0.9046528311344506	0	0.9399999999999999	0	44.83360346983367	-10.00598428817418	0	59.97682996016432	1.046793157713647	-5.000566591701259	0	0	44.83360346983367	-10.00598428817418	0	59.97682996016432	1.046793157713647	-5.000566591701259	0	0	1.335853585254493	-1.064365036909669	-0.01460847193948493	0	-13.44248692171854	0	75.47668983310625	44.98826662071426	0	0	89.9097130632272	46.44313892061744	-36.91909991102706	34.54690464055459	44.98826662071426	0	0
89	-0.9051228268536343	89.6553622532863	0.9056465530633202	0	0.9399999999999999	0	44.83600353919208	-10.00578305744411	0	59.97714870015034	1.046798720775861	-5.000544296316582	0	0	44.83600353919208	-10.00578305744411	0	59.97714870015034	1.046798720775861	-5.000544296316582	0	0	1.115089118298027	-0.7218807298290133	0.000987355100133537	0	-13.45600998063533	0	75.46981660748398	44.9886075693376	0	0	89.89251354686584	43.76723151088008	-37.87738933691386	23.44372518916382	44.9886075693376	0	0
90	-0.8955024228538366	89.65581022169911	0.899559942673702	0	0.9399999999999999	0	44.83749886621185	-10.00566494743289	0	59.977355057522	1.046802322391432	-5.000531405021159	0	0	44.83749886621185	-10.00566494743289	0	59.977355057522	1.046802322391432	-5.000531405021159	0	0	1.190658978508715	-0.6718504757933665	-0.00044679357505311	0	-13.46465268602917	0	75.46553435909472	44.98881018293514	0	0	89.89923196514277	40.57683661314426	-37.98194102216709	12.19255385604725	44.98881018293514	0	0
91	-0.9368080590225363	89.65521880889141	0.9373297988658897	0	0.9399999999999999	0	44.8377945108552	-10.0056393669841	0	59.97738302393602	1.046802810497437	-5.000528719250135	0	0	44.8377945108552	-10.0056393669841	0	59.97738302393602	1.046802810497437	-5.000528719250135	0	0	1.701508262578999	-0.9766129282763335	0.008234383982985953	0	-13.4661415456015	0	75.46468769435022	44.98885454215969	0	0	89.92955304915226	37.89347223477184	-37.62076057469979	0.4046420375524759	44.98885454215969	0	0
92	-0.9554054726226285	89.65257235527521	0.9569882399322834	0	0.9399999999999999	0	44.83858233039716	-10.00556812400867	0	59.97748644339341	1.046804615507479	-5.000520588780335	0	0	44.83858233039716	-10.00556812400867	0	59.97748644339341	1.046804615507479	-5.000520588780335	0	0	0.1844390681058793	0.2043591054730393	-0.00217761675294577	0	-13.47050833307591	0	75.46243156313979	44.98897272615277	0	0	89.31537600887137	39.7077067818124	-36.45062004591936	0.02468134703763131	44.98897272615277	0	0
93	-0.8733512211655907	89.66829657663354	0.8834748242819188	0	0.9399999999999999	0	44.84128755087014	-10.00527577457001	0	59.97779212013025	1.046809950572983	-5.000486322355794	0	0	44.84128755087014	-10.00527577457001	0	59.97779212013025	1.046809950572983	-5.000486322355794	0	0	0.07893048877018839	0.2642087540466449	-0.002205570359789711	0	-13.48399821349663	0	75.45468438126298	44.9894443228868	0	0	88.1129216796522	39.60082729083614	-35.81030538404752	0.02216152918252965	44.9894443228868	0	0
94	-0.9878650680500306	89.65876967583442	0.9891987002064431	0	0.9399999999999999	0	44.85305983011782	-10.00432887553406	0	59.97912118952367	1.046833147209886	-5.000385816304045	0	0	44.85305983011782	-10.00432887553406	0	59.97912118952367	1.046833147209886	-5.000385816304045	0	0	0.0400986061753804	0.3144710650479208	-0.005999694888791589	0	-13.54727392925235	0	75.42097138617845	44.99109190615613	0	0	86.54983007424779	39.36231259115497	-35.49180805791761	0.02048113448458319	44.99109190615613	0	0
95	-0.3922835709180451	89.65756578905626	0.3867399307261998	0	0.9399999999999999	0	44.85956153711107	-10.00367387321477	0	59.97987098907947	1.046846233680865	-5.000311827612111	0	0	44.85956153711107	-10.00367387321477	0	59.97987098907947	1.046846233680865	-5.000311827612111	0	0	0.03127462619480351	0.3240732867469486	0.006961932662144755	0	-13.5796427757058	0	75.40235192600574	44.99217520293136	0	0	85.80332281577832	38.65371017717096	-34.15182416765753	0.0217770352678703	44.99217520293136	0	0
96	-0.5282530939250445	89.6528843416467	0.5309314887996169	0	0.9399999999999999	0	44.87212695014671	-10.00292406634031	0	59.98135450905858	1.046872125989019	-5.000239518553877	0	0	44.87212695014671	-10.00292406634031	0	59.98135450905858	1.046872125989019	-5.000239518553877	0	0	0.02556135249056195	0.3398756384678225	-0.003535747318770498	0	-13.65273129830295	0	75.36636785578708	44.99358129319653	0	0	81.95729274079825	38.44432433519599	-31.90452709657225	0.01990873943803357	44.99358129319653	0	0
